<?xml version="1.0" encoding="UTF-8" standalone="no"?>
<!-- Created with Inkscape (http://www.inkscape.org/) -->

<svg
   xmlns:dc="http://purl.org/dc/elements/1.1/"
   xmlns:cc="http://creativecommons.org/ns#"
   xmlns:rdf="http://www.w3.org/1999/02/22-rdf-syntax-ns#"
   xmlns:svg="http://www.w3.org/2000/svg"
   xmlns="http://www.w3.org/2000/svg"
   xmlns:sodipodi="http://sodipodi.sourceforge.net/DTD/sodipodi-0.dtd"
   xmlns:inkscape="http://www.inkscape.org/namespaces/inkscape"
   width="48"
   height="48"
   viewBox="0 0 12.7 12.7"
   version="1.1"
   id="svg8"
   inkscape:version="0.92.3 (2405546, 2018-03-11)"
   sodipodi:docname="favicon.svg"
   inkscape:export-filename="C:\Users\Stuart\Documents\Workbench\Web\Converter\favicon-hires.png"
   inkscape:export-xdpi="384"
   inkscape:export-ydpi="384">
  <defs
     id="defs2" />
  <sodipodi:namedview
     id="base"
     pagecolor="#ffffff"
     bordercolor="#666666"
     borderopacity="1.0"
     inkscape:pageopacity="0.0"
     inkscape:pageshadow="2"
     inkscape:zoom="16.833333"
     inkscape:cx="13.990099"
     inkscape:cy="24"
     inkscape:document-units="mm"
     inkscape:current-layer="layer1"
     showgrid="false"
     units="px"
     inkscape:window-width="1920"
     inkscape:window-height="1001"
     inkscape:window-x="-9"
     inkscape:window-y="-9"
     inkscape:window-maximized="1" />
  <metadata
     id="metadata5">
    <rdf:RDF>
      <cc:Work
         rdf:about="">
        <dc:format>image/svg+xml</dc:format>
        <dc:type
           rdf:resource="http://purl.org/dc/dcmitype/StillImage" />
        <dc:title />
      </cc:Work>
    </rdf:RDF>
  </metadata>
  <g
     inkscape:label="Layer 1"
     inkscape:groupmode="layer"
     id="layer1"
     transform="translate(0,-284.29998)">
    <circle
       style="fill:#2874a6;fill-opacity:1;stroke:none;stroke-width:6.84654617;stroke-linejoin:round;stroke-miterlimit:4;stroke-dasharray:none;stroke-dashoffset:0;stroke-opacity:1"
       id="path4518"
       cx="6.3499999"
       cy="290.64996"
       r="6.3499999" />
    <g
       id="g4611"
       transform="matrix(0.04231501,0,0,0.04231501,1.595359,285.89529)"
       style="fill:#ffffff;fill-opacity:1">
      <path
         id="path4556"
         d="M 223.612,109.586 190.5,35.752 c -0.001,-0.002 -0.002,-0.004 -0.003,-0.006 l -0.043,-0.096 c -0.111,-0.247 -0.243,-0.479 -0.389,-0.7 -0.039,-0.06 -0.086,-0.114 -0.127,-0.171 -0.131,-0.182 -0.272,-0.353 -0.424,-0.514 -0.06,-0.063 -0.121,-0.125 -0.184,-0.185 -0.168,-0.159 -0.345,-0.306 -0.533,-0.44 -0.049,-0.036 -0.094,-0.076 -0.145,-0.11 -0.236,-0.156 -0.486,-0.29 -0.746,-0.405 -0.074,-0.033 -0.151,-0.057 -0.227,-0.086 -0.204,-0.078 -0.411,-0.143 -0.625,-0.194 -0.088,-0.021 -0.175,-0.042 -0.264,-0.058 -0.293,-0.054 -0.591,-0.09 -0.896,-0.09 h -58.428 c -1,-3.111 -2.943,-5.794 -5.485,-7.737 v -7.262 c 0,-2.761 -2.239,-5 -5,-5 h -9.334 c -2.761,0 -5,2.239 -5,5 v 7.381 c -2.465,1.933 -4.347,4.572 -5.326,7.619 H 38.734 c -0.305,0 -0.602,0.037 -0.896,0.09 -0.09,0.016 -0.176,0.037 -0.264,0.058 -0.214,0.051 -0.422,0.116 -0.625,0.194 -0.076,0.029 -0.153,0.053 -0.227,0.086 -0.26,0.115 -0.51,0.248 -0.746,0.405 -0.051,0.034 -0.096,0.074 -0.145,0.11 -0.188,0.134 -0.365,0.28 -0.533,0.44 -0.064,0.06 -0.124,0.122 -0.185,0.185 -0.153,0.161 -0.293,0.333 -0.424,0.514 -0.042,0.058 -0.088,0.112 -0.127,0.171 -0.146,0.221 -0.278,0.453 -0.389,0.7 l -0.043,0.096 c -0.001,0.002 -0.002,0.004 -0.003,0.006 L 0.897,109.848 C 0.335,110.657 0,111.636 0,112.696 c 0,21.358 17.376,38.734 38.734,38.734 21.358,0 38.734,-17.376 38.734,-38.734 0,-1.06 -0.334,-2.038 -0.897,-2.847 L 46.456,42.696 h 50.986 c 1.007,2.905 2.831,5.424 5.204,7.286 V 175.363 H 58.308 c -1.871,0 -3.586,1.045 -4.444,2.708 L 40.11,204.738 c -0.799,1.55 -0.733,3.405 0.174,4.894 0.908,1.489 2.525,2.398 4.27,2.398 h 135.519 c 0.006,-0.001 0.012,0 0.02,0 2.761,0 5,-2.239 5,-5 0,-0.98 -0.282,-1.894 -0.769,-2.665 l -13.563,-26.294 c -0.858,-1.663 -2.573,-2.708 -4.444,-2.708 H 121.98 V 50.101 c 2.449,-1.873 4.334,-4.436 5.363,-7.405 h 50.828 l -30.475,67.954 c -0.008,0.018 -0.012,0.036 -0.02,0.054 -0.023,0.054 -0.04,0.11 -0.062,0.165 -0.09,0.229 -0.162,0.463 -0.217,0.699 -0.014,0.062 -0.032,0.122 -0.044,0.184 -0.055,0.287 -0.083,0.576 -0.087,0.866 0,0.027 -0.008,0.051 -0.008,0.078 0,21.358 17.376,38.734 38.734,38.734 21.358,0 38.734,-17.376 38.734,-38.734 0,-1.182 -0.428,-2.254 -1.114,-3.11 z M 64.646,107.696 H 12.822 L 38.734,49.915 Z m 53.58,-70.166 c 0,3.217 -2.617,5.833 -5.833,5.833 -3.217,0 -5.834,-2.617 -5.834,-5.833 0,-3.217 2.617,-5.833 5.834,-5.833 3.216,-10e-4 5.833,2.616 5.833,5.833 z m 41.754,70.166 25.913,-57.781 25.912,57.781 z"
         inkscape:connector-curvature="0"
         style="fill:#ffffff;fill-opacity:1" />
      <g
         id="g4558"
         style="fill:#ffffff;fill-opacity:1" />
      <g
         id="g4560"
         style="fill:#ffffff;fill-opacity:1" />
      <g
         id="g4562"
         style="fill:#ffffff;fill-opacity:1" />
      <g
         id="g4564"
         style="fill:#ffffff;fill-opacity:1" />
      <g
         id="g4566"
         style="fill:#ffffff;fill-opacity:1" />
      <g
         id="g4568"
         style="fill:#ffffff;fill-opacity:1" />
      <g
         id="g4570"
         style="fill:#ffffff;fill-opacity:1" />
      <g
         id="g4572"
         style="fill:#ffffff;fill-opacity:1" />
      <g
         id="g4574"
         style="fill:#ffffff;fill-opacity:1" />
      <g
         id="g4576"
         style="fill:#ffffff;fill-opacity:1" />
      <g
         id="g4578"
         style="fill:#ffffff;fill-opacity:1" />
      <g
         id="g4580"
         style="fill:#ffffff;fill-opacity:1" />
      <g
         id="g4582"
         style="fill:#ffffff;fill-opacity:1" />
      <g
         id="g4584"
         style="fill:#ffffff;fill-opacity:1" />
      <g
         id="g4586"
         style="fill:#ffffff;fill-opacity:1" />
    </g>
  </g>
</svg>
